<svg xmlns="http://www.w3.org/2000/svg" xmlns:xlink="http://www.w3.org/1999/xlink" width="1920" zoomAndPan="magnify" viewBox="0 0 1440 809.999993" height="1080" preserveAspectRatio="xMidYMid meet" version="1.0"><defs><clipPath id="acd21b99dd"><path d="M 269 50.957031 L 1170 50.957031 L 1170 754 L 269 754 Z M 269 50.957031 " clip-rule="nonzero"/></clipPath></defs><g clip-path="url(#acd21b99dd)"><path fill="#ef836d" d="M 269.632812 261.113281 C 270.011719 271.429688 281.410156 294.460938 281.925781 295.894531 C 292.980469 326.605469 304.402344 357.207031 316.546875 387.5 C 354.199219 481.460938 400.683594 573.035156 442.507812 665.25 C 449.722656 681.160156 460.382812 702.820312 471.722656 719.738281 C 479.6875 731.613281 488.097656 741.140625 495.855469 745.296875 C 521.015625 758.78125 554.832031 752.027344 586.457031 745.742188 C 679.789062 727.199219 717.117188 690.804688 819.074219 647.855469 C 891.296875 617.4375 982.828125 604.203125 1057.867188 584.175781 C 1084.980469 576.941406 1167.25 540.675781 1167.25 540.675781 C 1168.34375 540.191406 1169.199219 539.289062 1169.628906 538.175781 C 1170.050781 537.054688 1170.015625 535.8125 1169.519531 534.722656 C 1169.519531 534.722656 1143.242188 476.964844 1137.9375 465.289062 C 1109.414062 402.585938 1084.582031 337.835938 1060.921875 273.167969 C 1040.851562 218.335938 1022.230469 163.332031 1000.375 109.164062 C 996.40625 99.328125 978.015625 53.761719 978.015625 53.761719 C 977.5625 52.625 976.664062 51.730469 975.527344 51.277344 C 974.398438 50.828125 973.128906 50.851562 972.015625 51.359375 C 972.015625 51.359375 926.8125 71.824219 915.5 76.949219 C 879.90625 93.0625 845.207031 98.53125 807.085938 106.457031 C 726.148438 123.28125 639.089844 132.164062 560.285156 157.789062 C 523.53125 169.742188 487.132812 184.195312 451.714844 199.675781 C 444.121094 203 436.449219 207.980469 428.570312 212.25 C 422.332031 215.628906 415.972656 218.582031 409.347656 219.527344 C 406.03125 212.464844 397.324219 194.390625 391.1875 186.246094 C 389.417969 183.898438 387.726562 182.265625 386.394531 181.472656 C 385.0625 180.679688 383.804688 180.433594 382.730469 180.480469 C 372.140625 180.988281 345.71875 190.519531 336.488281 194.902344 C 318.398438 203.488281 292.921875 222.683594 279.480469 239.460938 C 273.035156 247.5 269.417969 255.207031 269.632812 261.113281 Z M 502.175781 738.457031 C 513.167969 743.691406 525.851562 744.8125 539.171875 744.042969 C 554.015625 743.183594 569.625 739.953125 584.710938 736.953125 C 677.382812 718.542969 714.367188 682.242188 815.601562 639.601562 C 888.179688 609.027344 980.148438 595.644531 1055.554688 575.519531 C 1078.714844 569.335938 1142.578125 541.683594 1159.480469 534.296875 L 1129.78125 469 C 1101.167969 406.089844 1076.242188 341.125 1052.503906 276.246094 C 1032.476562 221.503906 1013.886719 166.589844 992.066406 112.519531 C 992.066406 112.519531 971.453125 61.445312 971.453125 61.445312 L 919.195312 85.109375 C 882.980469 101.507812 847.695312 107.167969 808.910156 115.230469 C 728.285156 131.988281 641.554688 140.785156 563.054688 166.3125 C 526.578125 178.171875 490.453125 192.523438 455.304688 207.886719 C 447.921875 211.113281 440.492188 215.980469 432.839844 220.132812 C 426.441406 223.59375 419.894531 226.550781 413.140625 227.945312 C 418.789062 240.535156 427.707031 258.992188 431.722656 269.203125 C 445.160156 303.359375 457.816406 337.839844 471.542969 371.878906 C 498.1875 437.941406 527.933594 502.675781 558.199219 567.132812 C 567.664062 587.28125 577.761719 607.066406 587.355469 627.140625 C 591.722656 636.273438 598.394531 645.832031 599.992188 656.054688 C 600.707031 660.636719 599.394531 665.617188 596.957031 670.414062 C 593.851562 676.535156 588.945312 682.398438 585.738281 686.496094 C 576.996094 697.660156 567.738281 705.871094 556.996094 714.722656 C 555.789062 715.710938 549.445312 719.914062 545.976562 721.175781 C 543.828125 721.960938 542.070312 721.78125 541.121094 721.414062 C 538.835938 720.539062 536.597656 718.710938 534.605469 716.417969 C 532.347656 713.835938 530.359375 710.652344 528.734375 708.609375 C 522.3125 700.539062 512.152344 685.804688 505.480469 676.46875 C 504.925781 676.980469 504.386719 677.496094 503.859375 678.011719 C 495.582031 686.191406 489.871094 701.964844 490.578125 715.910156 C 491.019531 724.582031 493.957031 732.609375 500.925781 737.210938 C 501.4375 737.554688 501.855469 737.976562 502.175781 738.457031 Z M 402.71875 226.5 C 402.652344 226.378906 402.589844 226.257812 402.53125 226.132812 C 402.53125 226.132812 393.90625 207.058594 386.792969 195.710938 C 385.1875 193.148438 382.910156 190.441406 382.101562 189.507812 C 371.691406 190.507812 348.597656 199.074219 340.335938 203 C 323.242188 211.105469 299.164062 229.214844 286.46875 245.058594 C 281.707031 251.007812 278.429688 256.417969 278.585938 260.785156 C 278.9375 270.339844 289.878906 291.527344 290.359375 292.863281 C 301.375 323.46875 312.761719 353.96875 324.863281 384.167969 C 362.46875 478.003906 408.902344 569.453125 450.667969 661.550781 C 457.710938 677.074219 468.09375 698.234375 479.167969 714.75 C 480.039062 716.050781 480.914062 717.324219 481.789062 718.5625 C 481.722656 717.832031 481.667969 717.101562 481.628906 716.363281 C 480.792969 699.875 487.773438 681.308594 497.566406 671.636719 C 511.105469 658.257812 533.113281 647.136719 554.050781 644.304688 C 566.613281 642.605469 578.777344 643.894531 588.679688 649.15625 C 586.046875 642.871094 582.078125 636.875 579.273438 631.007812 C 569.667969 610.910156 559.566406 591.105469 550.089844 570.941406 C 519.75 506.335938 489.941406 441.445312 463.234375 375.234375 C 449.496094 341.167969 436.832031 306.664062 423.386719 272.484375 C 418.820312 260.886719 407.910156 238.617188 402.71875 226.5 Z M 591.164062 659.996094 C 590.070312 660.152344 588.914062 659.902344 587.941406 659.210938 C 579.113281 652.917969 567.375 651.539062 555.253906 653.183594 C 540.148438 655.226562 524.425781 661.992188 512.421875 670.773438 C 519.019531 679.992188 529.285156 694.910156 535.746094 703.027344 C 537.074219 704.703125 538.648438 707.15625 540.414062 709.390625 C 541.367188 710.59375 542.316406 711.792969 543.378906 712.53125 C 544.03125 712.238281 545.023438 711.769531 545.78125 711.339844 C 548.167969 709.996094 550.65625 708.335938 551.300781 707.808594 C 561.527344 699.386719 570.359375 691.597656 578.683594 680.96875 C 581.605469 677.238281 586.136719 671.933594 588.96875 666.359375 C 590.050781 664.238281 590.914062 662.085938 591.164062 659.996094 Z M 661.359375 481.597656 C 646.652344 489.199219 627.808594 504.359375 620.089844 518.570312 C 618.089844 522.265625 616.144531 526.6875 615.675781 530.902344 C 615.097656 536.136719 616.515625 541.113281 621.734375 544.816406 C 626.511719 548.207031 632.597656 549.65625 639.074219 549.917969 C 647.691406 550.261719 657.011719 548.5 664.039062 547.515625 C 696.039062 543.019531 727.589844 533.808594 759.859375 531.363281 C 766.785156 530.839844 779.285156 528.574219 790.160156 528.847656 C 796.207031 528.996094 801.753906 529.703125 804.808594 532.757812 C 805.34375 533.289062 805.410156 534.011719 805.367188 534.785156 C 805.316406 535.824219 805.039062 536.9375 804.652344 538.109375 C 802.699219 544.003906 798.179688 550.867188 795.96875 556.472656 C 794.148438 561.101562 793.921875 565.179688 795.425781 568.0625 C 796.96875 571.015625 800.511719 573.613281 807.980469 573.613281 C 827.453125 573.613281 857.722656 563.714844 876.433594 559.960938 C 913.285156 552.5625 934.027344 540.75 970.386719 531.234375 C 972.78125 530.605469 974.214844 528.152344 973.589844 525.761719 C 972.960938 523.375 970.511719 521.9375 968.117188 522.5625 C 931.953125 532.035156 911.328125 543.816406 874.667969 551.175781 C 856.433594 554.839844 826.960938 564.65625 807.980469 564.65625 C 806.476562 564.65625 805.261719 564.539062 804.296875 564.273438 C 803.875 564.15625 803.503906 564.175781 803.371094 563.914062 C 803.050781 563.304688 803.40625 562.53125 803.660156 561.621094 C 804.21875 559.667969 805.261719 557.472656 806.429688 555.164062 C 809.210938 549.667969 812.628906 543.65625 813.820312 538.597656 C 814.96875 533.722656 814.242188 529.519531 811.148438 526.421875 C 806.753906 522.03125 799.0625 520.105469 790.386719 519.890625 C 779.191406 519.609375 766.316406 521.890625 759.183594 522.433594 C 726.726562 524.886719 694.984375 534.117188 662.792969 538.640625 C 656.214844 539.566406 647.496094 541.285156 639.429688 540.964844 C 634.78125 540.78125 630.351562 539.949219 626.921875 537.511719 C 624.828125 536.027344 624.351562 533.988281 624.585938 531.890625 C 624.925781 528.78125 626.488281 525.566406 627.96875 522.84375 C 634.949219 509.980469 652.160156 496.4375 665.472656 489.5625 C 667.667969 488.429688 668.53125 485.722656 667.398438 483.527344 C 666.261719 481.328125 663.558594 480.464844 661.359375 481.597656 Z M 855.285156 501.636719 C 853.847656 503.210938 853.703125 505.644531 855.050781 507.394531 C 856.203125 508.882812 857.5 509.214844 858.46875 509.296875 C 859.632812 509.394531 860.765625 509.109375 861.8125 508.261719 C 862.339844 507.835938 863 507.085938 863.433594 505.925781 C 863.726562 505.140625 863.90625 503.574219 864.183594 502.851562 C 865.003906 500.722656 865.742188 498.5625 866.394531 496.375 C 868.550781 489.148438 870.378906 481.824219 872.503906 474.589844 C 877.660156 457.027344 882.441406 439.246094 888.535156 421.980469 C 889.671875 418.78125 890.855469 414.652344 892.460938 410.761719 C 893.800781 407.507812 895.371094 404.386719 897.683594 402.480469 C 899.011719 401.390625 900.667969 402.226562 902.371094 403.054688 C 907.234375 405.40625 912.109375 410.21875 914.8125 412.21875 C 936.054688 427.960938 958.140625 442.878906 980.539062 456.910156 C 982.636719 458.222656 985.398438 457.589844 986.714844 455.492188 C 988.023438 453.398438 987.390625 450.628906 985.296875 449.316406 C 963.089844 435.410156 941.199219 420.621094 920.144531 405.019531 C 917.152344 402.804688 911.664062 397.597656 906.277344 394.988281 C 901.125 392.492188 896.015625 392.253906 891.996094 395.558594 C 889.261719 397.804688 887.0625 401.089844 885.304688 404.785156 C 883.058594 409.527344 881.519531 414.957031 880.09375 418.996094 C 873.9375 436.414062 869.109375 454.347656 863.90625 472.066406 C 861.785156 479.285156 859.957031 486.597656 857.808594 493.8125 C 857.21875 495.777344 856.558594 497.714844 855.820312 499.632812 C 855.671875 500.023438 855.457031 500.902344 855.285156 501.636719 Z M 862.015625 501.757812 L 862.144531 501.914062 C 862.101562 501.859375 862.054688 501.808594 862.015625 501.757812 Z M 894.773438 440.777344 C 894.773438 440.777344 894.839844 459.554688 893.132812 476.058594 C 892.875 478.515625 894.667969 480.71875 897.125 480.972656 C 899.589844 481.230469 901.789062 479.4375 902.046875 476.976562 C 903.796875 460.03125 903.734375 440.746094 903.734375 440.746094 C 903.726562 438.273438 901.707031 436.269531 899.238281 436.277344 C 896.765625 436.289062 894.761719 438.300781 894.773438 440.777344 Z M 913.105469 441.992188 L 920.960938 469.492188 C 921.640625 471.871094 924.125 473.25 926.503906 472.570312 C 928.878906 471.890625 930.257812 469.410156 929.578125 467.03125 L 921.722656 439.527344 C 921.042969 437.152344 918.558594 435.769531 916.179688 436.449219 C 913.804688 437.128906 912.425781 439.609375 913.105469 441.992188 Z M 672.839844 340.910156 L 672.703125 340.960938 L 672.660156 340.972656 C 671.917969 341.257812 671.292969 341.71875 670.820312 342.292969 L 670.804688 342.304688 C 670.425781 342.761719 670.144531 343.292969 669.96875 343.871094 C 665.832031 357.648438 655.535156 371.597656 655.535156 371.597656 C 654.070312 373.589844 654.496094 376.394531 656.492188 377.863281 C 658.480469 379.324219 661.289062 378.898438 662.753906 376.910156 C 662.753906 376.910156 668.964844 368.441406 674.023438 357.882812 L 676.503906 364.867188 L 678.492188 370.460938 C 672.394531 388.210938 659.445312 407.414062 659.445312 407.414062 C 658.066406 409.46875 658.609375 412.253906 660.660156 413.636719 C 662.710938 415.015625 665.496094 414.46875 666.878906 412.421875 C 666.878906 412.421875 676.160156 398.605469 683.03125 383.242188 L 685.457031 390.074219 C 686.285156 392.40625 687.113281 394.742188 687.941406 397.074219 L 689.285156 400.859375 C 683.511719 418.324219 670.828125 437.625 670.828125 437.625 C 669.472656 439.691406 670.050781 442.472656 672.121094 443.828125 C 674.1875 445.183594 676.964844 444.601562 678.324219 442.535156 C 678.324219 442.535156 687.261719 428.871094 693.871094 413.769531 C 696.867188 422.210938 699.867188 430.65625 702.859375 439.09375 C 706.019531 448 709.195312 456.976562 712.363281 465.890625 C 713.191406 468.222656 715.753906 469.441406 718.085938 468.613281 C 720.410156 467.785156 721.632812 465.21875 720.804688 462.890625 C 717.636719 453.976562 714.460938 445.003906 711.300781 436.097656 C 707.984375 426.746094 704.660156 417.382812 701.335938 408.019531 C 711.746094 412.160156 728.949219 418.210938 740.757812 418.257812 C 743.230469 418.269531 745.246094 416.269531 745.253906 413.796875 C 745.265625 411.328125 743.265625 409.308594 740.792969 409.300781 C 726.230469 409.238281 702.835938 399.128906 697.292969 396.640625 C 695.332031 391.117188 693.371094 385.59375 691.414062 380.074219 L 690.957031 378.785156 C 700.726562 382.109375 716.007812 386.644531 727.527344 387.015625 C 730 387.09375 732.070312 385.15625 732.152344 382.683594 C 732.226562 380.210938 730.289062 378.140625 727.816406 378.0625 C 713.835938 377.609375 693.949219 370.511719 687.097656 367.914062 L 684.949219 361.871094 L 681.902344 353.292969 C 688.410156 355.65625 697.746094 358.328125 708.609375 359.292969 C 711.070312 359.515625 713.25 357.695312 713.464844 355.234375 C 713.6875 352.773438 711.867188 350.59375 709.40625 350.371094 C 690.300781 348.660156 676.382812 341.214844 676.382812 341.214844 C 675.976562 341 675.554688 340.847656 675.113281 340.761719 L 675.09375 340.757812 C 674.367188 340.617188 673.589844 340.660156 672.839844 340.910156 Z M 767.421875 365.222656 L 771.664062 377.152344 C 766.953125 391.183594 759.171875 401.933594 759.171875 401.933594 C 757.722656 403.9375 758.167969 406.738281 760.171875 408.191406 C 762.175781 409.640625 764.980469 409.191406 766.429688 407.191406 C 766.429688 407.191406 771.511719 400.179688 776.210938 389.917969 C 780.726562 402.585938 785.246094 415.246094 789.761719 427.910156 C 790.589844 430.238281 793.15625 431.453125 795.488281 430.621094 C 797.8125 429.792969 799.03125 427.226562 798.203125 424.898438 C 793.363281 411.339844 788.527344 397.78125 783.691406 384.21875 C 789.003906 385.957031 796.28125 388.117188 804.320312 389.898438 C 806.730469 390.4375 809.125 388.910156 809.664062 386.492188 C 810.199219 384.078125 808.671875 381.683594 806.253906 381.152344 C 794.113281 378.464844 783.816406 374.871094 779.84375 373.40625 L 776.109375 362.917969 C 781.734375 365.628906 788.816406 368.476562 795.921875 369.824219 C 798.355469 370.28125 800.699219 368.683594 801.160156 366.253906 C 801.617188 363.824219 800.019531 361.476562 797.59375 361.019531 C 783.511719 358.355469 769.566406 349.070312 769.566406 349.070312 C 768.355469 348.265625 766.832031 348.097656 765.476562 348.621094 C 764.121094 349.148438 763.101562 350.296875 762.746094 351.699219 C 760.132812 362.03125 752.367188 375.414062 752.367188 375.414062 C 751.132812 377.550781 751.867188 380.292969 754.011719 381.53125 C 756.148438 382.769531 758.890625 382.03125 760.128906 379.894531 C 760.128906 379.894531 764.023438 373.117188 767.421875 365.222656 Z M 561.734375 277.222656 L 561.597656 277.273438 L 561.554688 277.285156 C 560.8125 277.570312 560.1875 278.03125 559.707031 278.605469 L 559.699219 278.617188 C 559.320312 279.074219 559.035156 279.605469 558.863281 280.183594 C 554.722656 293.960938 544.429688 307.910156 544.429688 307.910156 C 542.964844 309.902344 543.390625 312.707031 545.378906 314.175781 C 547.375 315.640625 550.179688 315.210938 551.648438 313.222656 C 551.648438 313.222656 557.859375 304.753906 562.917969 294.195312 L 565.398438 301.179688 L 567.382812 306.777344 C 561.289062 324.523438 548.339844 343.726562 548.339844 343.726562 C 546.957031 345.78125 547.5 348.566406 549.554688 349.945312 C 551.605469 351.328125 554.394531 350.78125 555.769531 348.734375 C 555.769531 348.734375 565.050781 334.917969 571.925781 319.554688 L 574.347656 326.382812 C 575.175781 328.71875 576.007812 331.058594 576.835938 333.386719 L 578.179688 337.175781 C 572.402344 354.636719 559.722656 373.9375 559.722656 373.9375 C 558.367188 376.003906 558.945312 378.78125 561.011719 380.140625 C 563.082031 381.496094 565.859375 380.914062 567.210938 378.847656 C 567.210938 378.847656 576.15625 365.183594 582.765625 350.085938 C 585.757812 358.523438 588.757812 366.96875 591.75 375.40625 C 594.910156 384.3125 598.089844 393.289062 601.253906 402.203125 C 602.082031 404.535156 604.648438 405.753906 606.972656 404.925781 C 609.304688 404.097656 610.527344 401.53125 609.699219 399.203125 C 606.527344 390.292969 603.355469 381.316406 600.195312 372.410156 C 596.878906 363.058594 593.554688 353.695312 590.230469 344.332031 C 600.636719 348.472656 617.839844 354.523438 629.648438 354.574219 C 632.125 354.582031 634.136719 352.582031 634.148438 350.113281 C 634.160156 347.640625 632.160156 345.625 629.6875 345.613281 C 615.125 345.550781 591.730469 335.441406 586.1875 332.953125 C 584.222656 327.425781 582.265625 321.90625 580.308594 316.386719 L 579.847656 315.097656 C 589.621094 318.421875 604.902344 322.953125 616.417969 323.328125 C 618.890625 323.410156 620.964844 321.46875 621.042969 318.996094 C 621.121094 316.527344 619.183594 314.449219 616.710938 314.375 C 602.730469 313.917969 582.835938 306.824219 575.984375 304.226562 L 573.839844 298.183594 L 570.796875 289.605469 C 577.300781 291.96875 586.640625 294.640625 597.5 295.609375 C 599.960938 295.828125 602.140625 294.007812 602.359375 291.546875 C 602.582031 289.085938 600.761719 286.90625 598.300781 286.6875 C 579.191406 284.976562 565.273438 277.523438 565.273438 277.523438 C 564.871094 277.3125 564.445312 277.160156 564.007812 277.074219 L 563.984375 277.070312 C 563.257812 276.929688 562.488281 276.972656 561.734375 277.222656 Z M 830.953125 305.984375 C 842.222656 302.796875 853.777344 300.230469 865.277344 297.6875 C 888.222656 292.613281 913.546875 286.21875 937.589844 288.128906 C 942.167969 288.496094 948.5 289.382812 953.433594 291.574219 C 955.871094 292.65625 958.015625 293.941406 958.855469 296 C 960.328125 299.617188 958.949219 303.171875 956.652344 306.515625 C 952.152344 313.078125 944.03125 318.808594 938.371094 322.765625 C 906.554688 345.019531 868.464844 360.765625 831.339844 376.171875 C 829.054688 377.121094 827.96875 379.746094 828.917969 382.027344 C 829.863281 384.308594 832.488281 385.394531 834.769531 384.449219 C 872.5 368.792969 911.175781 352.722656 943.507812 330.105469 C 949.90625 325.632812 958.953125 319 964.042969 311.578125 C 968.144531 305.597656 969.789062 299.101562 967.15625 292.625 C 965.519531 288.609375 961.828125 285.492188 957.066406 283.382812 C 951.214844 280.789062 943.730469 279.632812 938.300781 279.199219 C 913.386719 277.21875 887.117188 283.683594 863.347656 288.941406 C 851.675781 291.519531 839.949219 294.125 828.515625 297.363281 C 826.136719 298.035156 824.75 300.515625 825.425781 302.890625 C 826.097656 305.273438 828.578125 306.652344 830.953125 305.984375 Z M 772.878906 210.964844 C 764.152344 207.320312 755.539062 203.398438 746.761719 199.875 C 741.113281 197.605469 734.082031 194.417969 727.796875 195.226562 C 722.449219 195.914062 718.421875 199.316406 715.480469 204.050781 C 712 209.65625 710.101562 217.226562 708.488281 222.03125 C 703.867188 235.765625 698.367188 249.171875 693.613281 262.851562 C 691.15625 269.921875 684.371094 287.46875 684.371094 287.46875 C 683.480469 289.773438 684.628906 292.371094 686.9375 293.261719 C 689.242188 294.152344 691.839844 293.003906 692.730469 290.699219 C 692.730469 290.699219 699.59375 272.945312 702.078125 265.792969 C 706.839844 252.082031 712.355469 238.644531 716.980469 224.890625 C 718.207031 221.238281 719.539062 215.8125 721.792969 211.15625 C 723.441406 207.753906 725.429688 204.566406 728.945312 204.109375 C 733.785156 203.488281 739.074219 206.441406 743.421875 208.1875 C 752.507812 211.835938 761.410156 215.910156 770.449219 219.660156 C 764.039062 242.496094 757.351562 265.734375 750.691406 288.277344 C 749.996094 290.648438 751.351562 293.140625 753.722656 293.84375 C 756.089844 294.539062 758.582031 293.1875 759.285156 290.8125 C 767.167969 264.136719 775.089844 236.484375 782.539062 209.664062 C 783.757812 205.285156 785.042969 197.109375 787.460938 190.304688 C 788.707031 186.789062 790.070312 183.574219 792.316406 182.179688 C 792.894531 181.824219 793.613281 181.9375 794.390625 182.082031 C 795.972656 182.378906 797.691406 183.125 799.453125 184.0625 C 805.925781 187.507812 812.683594 193.460938 815.824219 195.503906 C 839.949219 211.160156 864.972656 225.628906 890.34375 239.160156 C 892.519531 240.324219 895.234375 239.496094 896.402344 237.3125 C 897.5625 235.132812 896.738281 232.414062 894.554688 231.253906 C 869.410156 217.84375 844.613281 203.507812 820.703125 187.984375 C 816.820312 185.464844 807.660156 177.433594 799.929688 174.417969 C 795.210938 172.578125 790.851562 172.542969 787.585938 174.566406 C 783.945312 176.835938 781.039062 181.609375 779.015625 187.3125 C 776.527344 194.328125 775.164062 202.75 773.90625 207.265625 C 773.566406 208.5 773.222656 209.734375 772.878906 210.964844 Z M 789.117188 221.640625 C 789.117188 221.640625 790.976562 239.324219 789.109375 261.710938 C 788.902344 264.171875 790.734375 266.34375 793.195312 266.550781 C 795.664062 266.753906 797.828125 264.921875 798.035156 262.457031 C 799.984375 239.128906 798.027344 220.699219 798.027344 220.699219 C 797.765625 218.234375 795.558594 216.453125 793.101562 216.714844 C 790.640625 216.972656 788.855469 219.179688 789.117188 221.640625 Z M 803.210938 212.449219 C 803.210938 212.449219 814.238281 244.695312 817.859375 252.054688 C 818.949219 254.269531 821.636719 255.1875 823.855469 254.09375 C 826.074219 253.003906 826.988281 250.316406 825.898438 248.097656 C 822.378906 240.941406 811.691406 209.554688 811.691406 209.554688 C 810.890625 207.210938 808.34375 205.960938 806.007812 206.761719 C 803.667969 207.558594 802.414062 210.105469 803.210938 212.449219 Z M 803.210938 212.449219 " fill-opacity="1" fill-rule="evenodd"/></g></svg>