<svg xmlns="http://www.w3.org/2000/svg" xmlns:xlink="http://www.w3.org/1999/xlink" width="1920" zoomAndPan="magnify" viewBox="0 0 1440 809.999993" height="1080" preserveAspectRatio="xMidYMid meet" version="1.0"><defs><clipPath id="9447076d0c"><path d="M 474.351562 73 L 965 73 L 965 761.589844 L 474.351562 761.589844 Z M 474.351562 73 " clip-rule="nonzero"/></clipPath></defs><g clip-path="url(#9447076d0c)"><path fill="#ef836d" d="M 963.855469 670.558594 C 960.445312 635.75 923.804688 346.246094 919.554688 325.152344 C 917.902344 316.925781 917.066406 316.609375 908.71875 316.808594 C 887.15625 317.304688 877.816406 316.371094 849.167969 316.925781 C 844.53125 317.019531 842.242188 315.355469 841.734375 310.457031 C 840.730469 300.742188 801.058594 123.816406 780.742188 90.304688 C 755.316406 48.363281 719.242188 94.070312 708.40625 122.492188 C 694.324219 152.640625 683.867188 115.351562 650.769531 180 C 631.835938 218.707031 618.367188 259.726562 606.976562 301.179688 C 602.8125 314.859375 583.757812 310.257812 572.792969 310.964844 C 561.652344 310.386719 558.757812 312.417969 554.308594 322.519531 C 550.851562 330.394531 547.296875 338.246094 544.191406 346.269531 C 539.742188 359.597656 524.539062 359.445312 513.300781 363.386719 C 505.617188 365.582031 504.886719 366.527344 503.941406 374.210938 C 482.789062 494.539062 475.625 616.921875 474.359375 738.726562 C 476.601562 756.078125 491.640625 760.269531 507.152344 761.210938 C 514.292969 761.648438 835.253906 757.292969 841.273438 757.234375 C 864.382812 757.023438 865.777344 753.941406 884.15625 741.664062 C 888.652344 738.667969 939.410156 710.410156 956.621094 696.714844 C 963.621094 691.15625 965.589844 681.582031 963.855469 670.558594 Z M 890.375 325.566406 C 910.574219 325.730469 911.613281 323.949219 908.222656 332.164062 C 892.996094 369.125 899.5 371.875 866.605469 359.988281 C 862.695312 358.570312 837.210938 357.589844 783.882812 359.515625 C 772.433594 359.929688 771.464844 338.800781 769.964844 331.609375 C 769.304688 323.75 775.535156 324.433594 780.742188 324.210938 C 817.300781 324.632812 853.84375 325.273438 890.375 325.566406 Z M 763.816406 301.769531 C 755.539062 258.628906 749.273438 215.058594 739.359375 172.269531 C 738.742188 167.582031 736.511719 159.921875 742.804688 158.449219 C 745.390625 158.328125 748.578125 160.453125 750.605469 164.089844 C 759.269531 179.648438 784.035156 280.15625 786.359375 313.585938 C 784.660156 315.582031 782.382812 315.332031 780.304688 315.390625 C 766.800781 315.769531 766.351562 315.558594 763.816406 301.769531 Z M 780.742188 107.3125 C 788.980469 127.605469 821.160156 268.496094 826.011719 283.285156 C 828.253906 290.121094 838.320312 316.160156 825.773438 315.875 C 802.15625 316.417969 794.894531 319.78125 792.816406 292.609375 C 787.519531 269.605469 769.941406 179.660156 754.949219 153.855469 C 748.835938 143.339844 742.496094 147.152344 732.40625 151.164062 C 728.0625 143.351562 721.121094 138.511719 712.480469 134.414062 C 733.929688 82.960938 762.421875 62.1875 780.742188 107.3125 Z M 614.058594 304.203125 C 629.238281 254.011719 644.65625 202.914062 673.765625 158.695312 C 684.316406 141.449219 715.078125 136.375 724.191406 156.9375 C 743.632812 211 746.144531 269.710938 759.601562 325.449219 C 766.175781 360.375 777.875 393.886719 786.964844 428.046875 C 788.898438 442.035156 774.78125 444.042969 763.6875 443.984375 C 753.003906 444.421875 750.253906 441.164062 747.503906 431.222656 C 721.582031 359.207031 704.761719 282.953125 702.542969 206.3125 C 704.027344 197.648438 691.410156 194.402344 686.785156 200.730469 C 680.75 208.980469 636.203125 344.738281 627.609375 405.609375 C 624.140625 426.773438 620.953125 462.480469 590.710938 452.445312 C 582.730469 450.144531 580.890625 448.160156 580.820312 440.125 C 585.210938 393.652344 601.878906 349.082031 614.058594 304.203125 Z M 700.203125 320.761719 C 706.507812 320.796875 707.722656 323.039062 708.832031 328.28125 C 708.738281 335.269531 720.980469 361.957031 709.480469 361.332031 C 687.398438 362.347656 668.003906 363.621094 645.363281 363.246094 C 646.601562 354.921875 651.832031 321.1875 660.140625 321.753906 C 673.492188 321.292969 686.855469 320.703125 700.203125 320.761719 Z M 661.039062 310.824219 C 666.007812 282.070312 686.015625 215.8125 691.445312 211.964844 C 694.761719 217.417969 698.234375 278.351562 704.476562 302.9375 C 705.078125 307.882812 703.4375 310.648438 698.941406 310.742188 C 686.664062 311 674.378906 310.824219 661.039062 310.824219 Z M 548.996094 359.515625 C 553.929688 348.207031 558.5 336.734375 563.171875 325.308594 C 565.0625 320.679688 568.402344 319.003906 573.335938 319.289062 C 579.722656 321.28125 601.050781 315.34375 599.28125 325.730469 C 596.082031 332.957031 590.15625 368.109375 584.410156 369.015625 C 575.332031 370.445312 565.25 369.511719 535.917969 369.136719 C 526.476562 369.003906 546.257812 365.78125 548.996094 359.515625 Z M 847.550781 747.992188 C 839.574219 748.511719 536.519531 752.3125 510.714844 751.875 C 486.011719 751.460938 483.863281 746.03125 483.769531 725.707031 C 484.195312 681.113281 485.101562 636.410156 486.957031 591.839844 C 491.972656 522.289062 497.4375 452.292969 511.164062 383.914062 C 513.148438 377.679688 513.9375 376.832031 520.054688 376.785156 C 530.277344 376.714844 566.996094 376.878906 575.152344 376.972656 C 584.242188 377.066406 583.453125 378.835938 582.863281 382.449219 C 579.261719 412.265625 550.332031 470.152344 604.851562 463.082031 C 614.320312 460.898438 623.503906 457.34375 626.617188 446.367188 C 633.925781 425.535156 636.074219 403.4375 640.15625 381.824219 C 641.90625 373.976562 642.898438 372.769531 650.617188 372.109375 C 659.1875 371.378906 667.800781 371.046875 676.394531 370.941406 C 687.160156 370.800781 697.925781 371.378906 708.679688 371.035156 C 720.992188 370.101562 721.769531 382.816406 724.578125 391.574219 C 729.429688 409.800781 736.195312 427.339844 743.21875 444.808594 C 746.640625 455.621094 769.71875 450.074219 779.007812 450.839844 C 814.136719 441.964844 785.40625 398.714844 780.800781 376.675781 C 779.03125 371.117188 781.097656 367.976562 786.527344 367.894531 C 806.957031 367.625 827.402344 367.554688 847.847656 367.507812 C 851.472656 367.496094 854.066406 369.796875 853.84375 373.597656 C 842.699219 562.554688 862.96875 704.53125 866.285156 735.75 C 868.03125 744.921875 858.210938 747.308594 847.550781 747.992188 Z M 944.816406 693.800781 C 924.972656 706.761719 903.796875 717.324219 883.566406 729.542969 C 876.035156 735.527344 872.316406 721.917969 870.273438 706.738281 C 868.527344 693.742188 850.761719 471.390625 865.480469 371.71875 C 874.75 370.375 893.5625 386.25 897.683594 375.554688 C 901.863281 366.890625 911.953125 348.078125 912.851562 347.792969 C 915.199219 347.039062 915.542969 349.210938 915.742188 350.53125 C 930.050781 442 953.773438 651.566406 954.367188 675.292969 C 954.578125 683.851562 952.160156 689.007812 944.816406 693.800781 Z M 775.558594 608.578125 C 772.574219 608.578125 769.660156 608.683594 770.082031 604.421875 C 769.777344 583.601562 757.15625 546.097656 737.269531 533.46875 C 730.917969 529.445312 722.691406 529.550781 716.363281 533.621094 C 707.6875 539.21875 700.734375 548.507812 709.777344 556.710938 C 722.726562 568.914062 749.378906 613.097656 741.636719 614.527344 C 736.488281 615.46875 731.757812 622.199219 735.414062 625.988281 C 742.96875 632.03125 749.722656 638.855469 756.425781 645.792969 C 759.753906 649.242188 764.878906 649.148438 767.863281 644.804688 C 771.769531 639.101562 777.332031 632.328125 782.003906 621.609375 C 785.605469 613.355469 784.296875 608.578125 775.558594 608.578125 Z M 765.375 632.691406 C 763.566406 635.066406 761.324219 635.679688 758.492188 633.835938 C 750.40625 628.585938 741.234375 621.996094 748.023438 619.390625 C 756.664062 616.070312 747.902344 596.054688 728.226562 564.785156 C 722.796875 556.15625 711.148438 546.027344 723.539062 541.316406 C 726.363281 540.242188 729.535156 540.703125 731.980469 542.464844 C 750.195312 555.566406 759.542969 581.320312 762.601562 602.933594 C 764.371094 615.480469 761.335938 617.429688 768.75 616.699219 C 778.226562 615.765625 767.722656 629.164062 765.375 632.691406 Z M 906.039062 519.175781 C 909.476562 562.71875 914.078125 606.511719 921.019531 649.605469 C 908.320312 688.230469 900.089844 527.414062 898.792969 520.4375 C 898.027344 510.414062 899.125 506.6875 901.78125 508.007812 C 906.429688 510.34375 905.640625 515.253906 906.039062 519.175781 Z M 894.683594 476.183594 C 891.191406 457.546875 889.113281 415.195312 889.90625 411.664062 C 890.199219 410.355469 890.789062 409.269531 891.886719 408.582031 C 893.707031 408.160156 894.933594 409.550781 895.464844 411.015625 C 896.988281 429.628906 898.507812 448.375 901.828125 466.835938 C 902.109375 473.152344 906.335938 483.644531 900.222656 487.847656 C 897.992188 489.109375 896.148438 484.011719 894.683594 476.183594 Z M 752.800781 410.152344 C 754.265625 400.34375 773.707031 403.34375 771.746094 412.820312 C 770.191406 423.421875 750.949219 419.738281 752.800781 410.152344 Z M 597.972656 419.382812 C 596.269531 407.25 613.089844 406.882812 614.414062 417.175781 C 615.972656 425.734375 598.453125 430.101562 597.972656 419.382812 Z M 633.265625 615.363281 C 638.234375 598.285156 665.429688 554.433594 670.222656 560.675781 C 673.410156 564.832031 681.554688 565.976562 683.265625 560.996094 C 685.214844 551.515625 688.199219 542.390625 691.328125 533.269531 C 692.886719 528.734375 690.464844 524.214844 685.238281 523.542969 C 678.390625 522.65625 669.820312 520.804688 658.148438 521.511719 C 649.152344 522.066406 645.492188 525.40625 649.484375 533.183594 C 650.839844 535.839844 652.257812 538.390625 648.277344 539.949219 C 629.875 549.710938 602.242188 578.015625 600.058594 601.472656 C 599.363281 608.953125 603.210938 616.238281 609.714844 620.003906 C 618.652344 625.183594 630.078125 627.132812 633.265625 615.363281 Z M 613.304688 610.125 C 611.0625 608.105469 610.035156 605.070312 610.484375 602.085938 C 613.847656 579.90625 632.519531 559.839844 650.367188 547.277344 C 660.730469 539.984375 663.847656 541.800781 659.8125 535.535156 C 654.652344 527.519531 671.367188 530.777344 675.582031 531.25 C 678.519531 531.769531 680.089844 533.492188 679.738281 536.855469 C 678.746094 546.453125 677.058594 557.609375 671.652344 552.757812 C 664.757812 546.582031 650.933594 563.484375 632.046875 595.25 C 626.855469 604.03125 623.148438 619.011719 613.304688 610.125 Z M 724.238281 639.941406 C 707.382812 645.628906 655.84375 648.378906 658.242188 640.871094 C 659.824219 635.890625 656.105469 628.550781 651.054688 629.988281 C 642.164062 633.8125 632.96875 636.574219 623.691406 639.21875 C 619.089844 640.53125 616.75 645.097656 619.195312 649.773438 C 622.382812 655.898438 625.757812 663.996094 633.015625 673.15625 C 638.613281 680.214844 643.441406 681.3125 647.546875 673.59375 C 648.953125 670.960938 650.226562 668.339844 653.792969 670.710938 C 672.324219 680.226562 711.347656 686.730469 731.839844 675.117188 C 738.378906 671.410156 742.15625 664.089844 741.53125 656.59375 C 740.65625 646.3125 735.722656 635.820312 724.238281 639.941406 Z M 731.34375 659.308594 C 730.964844 662.308594 729.066406 664.882812 726.363281 666.214844 C 706.234375 676.128906 679.097656 672.269531 658.597656 664.808594 C 646.699219 660.476562 646.402344 656.878906 643.558594 663.773438 C 639.921875 672.589844 633.050781 657.019531 631.035156 653.277344 C 629.78125 650.574219 630.300781 648.296875 633.253906 646.667969 C 641.691406 641.992188 651.808594 637 650.921875 644.210938 C 649.789062 653.394531 671.566406 655.070312 708.417969 652.417969 C 718.605469 651.671875 733.007812 646.148438 731.34375 659.308594 Z M 731.34375 659.308594 " fill-opacity="1" fill-rule="nonzero"/></g></svg>