<svg xmlns="http://www.w3.org/2000/svg" xmlns:xlink="http://www.w3.org/1999/xlink" width="1920" zoomAndPan="magnify" viewBox="0 0 1440 809.999993" height="1080" preserveAspectRatio="xMidYMid meet" version="1.0"><path fill="#ef836d" d="M 740.460938 235.351562 C 741.816406 233.671875 742.902344 232.371094 743.941406 231.027344 C 754.609375 217.234375 765.078125 203.296875 775.957031 189.6875 C 791.160156 170.671875 806.039062 151.441406 818.378906 130.429688 C 822.171875 123.972656 825.097656 116.960938 828.101562 110.066406 C 829.347656 107.191406 830.175781 103.972656 828.949219 100.523438 C 825.289062 99.6875 822.605469 101.542969 819.914062 103.191406 C 810.582031 108.910156 803.417969 117 796.4375 125.171875 C 769.378906 156.851562 749.117188 192.816406 730.785156 229.964844 C 730.566406 230.433594 730.707031 231.101562 730.675781 231.804688 C 733.824219 232.949219 736.847656 234.042969 740.460938 235.351562 Z M 701.113281 608.757812 C 702.011719 610.988281 701.523438 612.839844 699.328125 612.695312 C 692.996094 612.222656 686.621094 611.582031 680.382812 610.445312 C 677.828125 609.988281 677.789062 607.160156 680.097656 605.671875 C 680.960938 605.113281 682.117188 604.429688 683.035156 604.5625 C 688.464844 605.375 693.859375 606.386719 699.25 607.4375 C 700.007812 607.570312 700.617188 608.382812 701.113281 608.757812 Z M 700.675781 526.34375 C 694.15625 527.992188 688.21875 529.503906 682.273438 531 C 680.179688 531.523438 677.851562 532.234375 676.746094 529.582031 C 675.75 527.097656 677.53125 525.332031 679.304688 524.300781 C 684.851562 521.0625 690.925781 520.125 697.1875 521.339844 C 699.65625 521.808594 701.453125 523.335938 700.675781 526.34375 Z M 707.25 453.972656 C 707.851562 453.824219 708.875 453.523438 709.941406 453.335938 C 717.171875 452.109375 724.09375 453.457031 730.851562 455.96875 C 732.023438 456.398438 733.359375 457.152344 733.933594 458.160156 C 734.585938 459.292969 734.914062 461.015625 734.542969 462.199219 C 734.320312 462.898438 732.390625 463.53125 731.304688 463.429688 C 724.890625 462.832031 718.464844 462.109375 712.070312 461.234375 C 710.191406 460.984375 708.21875 460.394531 706.617188 459.429688 C 704.425781 458.078125 704.644531 455.566406 707.25 453.972656 Z M 654.867188 410.613281 C 657.648438 409.617188 659.636719 408.375 661.703125 408.257812 C 668.941406 407.890625 676.222656 407.753906 683.472656 407.917969 C 684.675781 407.941406 685.835938 409.882812 687.019531 410.9375 C 685.855469 411.964844 684.792969 413.71875 683.507812 413.910156 C 675.214844 415.125 666.890625 415.992188 658.566406 416.960938 C 658.152344 417.007812 657.640625 417.0625 657.300781 416.871094 C 655.878906 416.144531 653.738281 415.585938 653.367188 414.4375 C 652.992188 413.339844 654.425781 411.625 654.867188 410.613281 Z M 703.902344 322.855469 C 705.253906 319.144531 707.933594 318.34375 710.664062 317.71875 C 719.296875 315.773438 727.785156 316.9375 736.171875 319.289062 C 737.316406 319.625 738.867188 320.46875 739.167969 321.398438 C 739.492188 322.464844 738.625 323.910156 738.238281 325.167969 C 738.1875 325.292969 737.84375 325.347656 737.625 325.355469 C 727.136719 325.125 716.613281 324.933594 706.121094 324.601562 C 705.445312 324.59375 704.828125 323.617188 703.898438 322.855469 Z M 644.074219 285.019531 C 648.398438 284.292969 652.222656 283.023438 655.980469 283.160156 C 661.707031 283.382812 667.449219 284.429688 673.121094 285.433594 C 674.308594 285.640625 675.265625 287.152344 676.347656 288.050781 C 675.273438 289.226562 674.425781 290.804688 673.097656 291.433594 C 671.628906 292.136719 669.753906 292.054688 668.050781 292.132812 C 662.082031 292.386719 656.078125 292.582031 650.078125 292.785156 C 648.796875 292.824219 647.507812 292.8125 646.234375 292.714844 C 644.261719 292.574219 641.90625 292.328125 641.921875 289.894531 C 641.941406 288.257812 643.3125 286.644531 644.070312 285.019531 Z M 612.171875 61.214844 C 611.542969 61.230469 610.914062 61.242188 610.28125 61.253906 C 609.824219 65.011719 609.132812 68.75 608.960938 72.511719 C 608.117188 90.5625 611.15625 108.148438 615.546875 125.5625 C 624.804688 162.21875 638.324219 197.402344 652.53125 232.347656 C 652.984375 233.46875 653.800781 234.453125 654.476562 235.519531 C 660.03125 233.550781 665.191406 231.726562 670.539062 229.839844 C 669.769531 226.613281 669.265625 223.855469 668.496094 221.179688 C 660.417969 193.019531 652.734375 164.734375 644.011719 136.777344 C 638.003906 117.472656 630.757812 98.542969 623.632812 79.601562 C 621.089844 72.816406 617.171875 66.582031 612.167969 61.210938 Z M 722.527344 229.582031 C 724.425781 224.558594 726.167969 219.960938 727.894531 215.335938 C 740.542969 181.410156 751.828125 147.039062 759.433594 111.605469 C 761.691406 101.113281 762.929688 90.382812 764.042969 79.699219 C 764.570312 74.832031 763.867188 69.808594 763.261719 64.921875 C 762.988281 62.824219 762.90625 60.03125 759.046875 59.023438 C 757.035156 61.589844 754.613281 64.269531 752.652344 67.269531 C 745.808594 77.773438 740.652344 89.125 736.1875 100.816406 C 721.140625 140.222656 712.683594 181.367188 704.371094 222.546875 C 704.09375 223.910156 704.285156 225.378906 704.257812 226.898438 C 710.417969 227.792969 716.128906 228.652344 722.527344 229.585938 Z M 697.148438 226.753906 C 697.703125 218.664062 698.152344 210.964844 698.789062 203.25 C 701.574219 168.472656 704.417969 133.679688 703.335938 98.734375 C 702.96875 87.132812 701.910156 75.535156 700.6875 63.996094 C 700.242188 59.5625 698.691406 55.199219 697.207031 50.957031 C 696.578125 49.191406 694.839844 47.816406 692.917969 45.394531 C 690.367188 49.125 688.046875 51.707031 686.675781 54.734375 C 684.191406 60.226562 681.878906 65.84375 680.238281 71.613281 C 675.105469 89.703125 672.511719 108.222656 671.496094 127.015625 C 669.667969 160.53125 674.527344 193.632812 677.21875 226.882812 C 677.253906 227.289062 677.5 227.679688 677.800781 228.511719 C 684.050781 227.941406 690.386719 227.367188 697.148438 226.753906 Z M 717.628906 765.851562 C 719.339844 762.300781 720.902344 759.984375 721.601562 757.414062 C 724.160156 748.050781 726.816406 738.695312 728.679688 729.207031 C 736.351562 690.492188 743.722656 651.71875 751.273438 612.972656 C 764.917969 542.847656 775.871094 472.355469 779.339844 400.886719 C 780.453125 377.859375 781.046875 354.789062 781.246094 331.730469 C 781.398438 315.714844 779.214844 299.875 773.628906 284.71875 C 765.371094 262.417969 750.859375 246.375 727.414062 239.550781 C 707.246094 233.664062 686.972656 233.414062 666.847656 239.421875 C 657.300781 242.28125 648.535156 247.097656 640.710938 253.28125 C 626.207031 264.742188 617.269531 279.746094 614.429688 297.921875 C 612.503906 310.246094 611.136719 322.75 610.867188 335.207031 C 610.21875 365.453125 613.519531 395.488281 618.28125 425.3125 C 623.910156 460.671875 632.339844 495.4375 641.035156 530.144531 C 657.105469 594.324219 673.933594 658.292969 694.902344 721.082031 C 699.269531 734.164062 703.863281 747.207031 711.671875 758.769531 C 713.171875 760.984375 715.117188 762.898438 717.628906 765.851562 Z M 663.5625 176.125 C 663.554688 158.742188 663.1875 141.953125 663.636719 125.179688 C 664.140625 106.140625 666.988281 87.367188 672.824219 69.175781 C 674.804688 63.035156 677.304688 57.058594 679.996094 51.183594 C 681.300781 48.304688 683.277344 45.589844 685.441406 43.257812 C 691.554688 36.683594 698.21875 37.476562 702.808594 45.273438 C 704.316406 47.84375 705.644531 50.703125 706.230469 53.589844 C 707.804688 61.609375 709.433594 69.671875 710.171875 77.785156 C 712.351562 102.113281 711.308594 126.460938 710.273438 150.816406 C 710.214844 152.726562 710.261719 154.667969 710.300781 156.589844 C 710.300781 156.691406 710.625 156.796875 711.261719 157.148438 C 711.847656 155.105469 712.445312 153.183594 712.945312 151.199219 C 718.636719 127.894531 725.941406 105.125 736 83.332031 C 739.589844 75.542969 744.167969 68.171875 748.605469 60.816406 C 750.242188 58.105469 752.578125 55.65625 755.011719 53.601562 C 759.671875 49.671875 765.253906 50.621094 768.074219 56.03125 C 769.730469 59.195312 770.972656 62.925781 771.132812 66.445312 C 771.453125 73.945312 771.523438 81.566406 770.628906 89.011719 C 767.402344 116.097656 759.78125 142.195312 751.460938 168.097656 C 749.757812 173.414062 747.980469 178.722656 747.289062 184.628906 C 748.417969 182.828125 749.613281 181.039062 750.691406 179.210938 C 762.507812 159.386719 774.527344 139.722656 789.46875 122.054688 C 797.554688 112.5 805.792969 103.042969 816.53125 96.316406 C 819.410156 94.511719 822.578125 92.867188 825.851562 92.09375 C 832.445312 90.550781 837.777344 94.292969 837.984375 101.007812 C 838.117188 105.390625 837.359375 110.195312 835.613281 114.179688 C 831.972656 122.445312 827.875 130.582031 823.128906 138.246094 C 808.585938 161.734375 791.082031 183.070312 773.878906 204.628906 C 765.96875 214.546875 758.167969 224.601562 750.363281 234.601562 C 749.445312 235.769531 748.726562 237.058594 748.011719 238.136719 C 748.40625 238.8125 748.503906 239.3125 748.8125 239.503906 C 768.84375 252.320312 780.050781 271.113281 785.496094 293.761719 C 788.640625 306.816406 789.953125 320.121094 789.949219 333.515625 C 789.929688 381.21875 786.914062 428.734375 781.390625 476.117188 C 775.15625 529.921875 765.101562 583.105469 754.4375 636.179688 C 748.574219 665.347656 743.222656 694.628906 737.421875 723.800781 C 735.34375 734.160156 732.734375 744.40625 730.046875 754.609375 C 729.019531 758.519531 727.398438 762.421875 725.410156 765.925781 C 721.730469 772.359375 716.09375 773.292969 711.167969 767.828125 C 707.210938 763.398438 703.539062 758.3125 701.214844 752.882812 C 696.128906 741.03125 691.628906 728.894531 687.511719 716.664062 C 667.617188 657.378906 652.59375 596.710938 637.257812 536.15625 C 627.691406 498.351562 618.167969 460.523438 611.792969 422.007812 C 607.5 396.046875 604.425781 369.953125 603.535156 343.621094 C 602.96875 326.964844 603.851562 310.429688 607.457031 294.113281 C 611.871094 274.132812 622.097656 257.941406 638.921875 246.058594 C 642.074219 243.828125 645.058594 241.339844 648.058594 239.023438 C 642.726562 226.078125 637.273438 213.449219 632.253906 200.644531 C 620.664062 171.125 610.277344 141.195312 605.394531 109.71875 C 603.507812 97.621094 602.851562 85.308594 602.113281 73.070312 C 601.851562 68.625 602.546875 63.984375 603.613281 59.628906 C 605.660156 51.21875 612.503906 49.433594 618.414062 55.886719 C 622.019531 59.808594 625.164062 64.320312 627.667969 69.023438 C 635.960938 84.472656 641.382812 101.089844 646.429688 117.808594 C 651.820312 135.527344 656.867188 153.355469 662.046875 171.152344 C 662.527344 172.761719 663.035156 174.367188 663.566406 176.113281 Z M 663.5625 176.125 " fill-opacity="1" fill-rule="evenodd"/></svg>